<?xml version="1.0" encoding="utf-8"?>
<!-- Generator: Adobe Illustrator 16.0.0, SVG Export Plug-In . SVG Version: 6.00 Build 0)  -->
<!DOCTYPE svg PUBLIC "-//W3C//DTD SVG 1.1//EN" "http://www.w3.org/Graphics/SVG/1.1/DTD/svg11.dtd">
<svg version="1.1" id="Layer_1" xmlns="http://www.w3.org/2000/svg" xmlns:xlink="http://www.w3.org/1999/xlink" x="0px" y="0px"
	 width="200pt" height="200pt" viewBox="0 0 864 864" enable-background="new 0 0 864 864" xml:space="preserve">
<path fill-rule="evenodd" clip-rule="evenodd" d="M714.143,221.845c-2.559,5.76-4.44,11.956-7.815,17.188
	c-6.902,10.7-18.092,15.222-29.935,17.777c-9.133,1.97-18.533,2.662-27.719,4.428c-4.586,0.881-8.953,2.896-13.42,4.397
	c0.09,0.494,0.18,0.987,0.269,1.48c5.345,1.975,10.755,3.792,16.021,5.957c13.659,5.614,23.948,14.314,27.07,29.67
	c1.703,8.373,0.179,10.753-8.282,10.197c-13.631-0.896-24.962-6.274-32.304-18.364c-4.754-7.83-9.357-15.751-14.297-24.086
	c-28.411,4.116-56.547,11.296-83.543,22.711c-15.257,6.453-26.276,16.761-29.9,33.586c-0.358,1.662-0.358,3.401-0.566,5.543
	c25.387,3.176,50.294,6.292,75.59,9.456c2.137-8.643,3.78-16.794,6.193-24.711c4.032-13.229,17.485-26.436,30.214-25.4
	c5.654,0.46,8.149,2.638,8.259,8.38c0.288,14.988-6.812,26.291-18.027,35.393c-3.002,2.436-6.405,4.376-10.179,6.917
	c15.303,3.496,30.077,6.871,45.091,10.3c8.708-21.467,21.039-27.702,52.438-24.319c5.472,16.805-6.298,27.833-35.956,34.049
	c6.67,6.178,13.987,12.141,20.314,19.015c9.019,9.795,12.826,21.68,10.855,35.041c-0.864,5.865-6.09,3.958-8.494,2.937
	c-8.312-3.528-16.418-7.688-24.189-12.304c-10.784-6.406-13.242-17.673-15.438-28.883c-0.188-0.961-0.246-1.959-0.255-2.942
	c-0.09-10.309-7.92-13.057-15.616-15.071c-10.146-2.656-20.521-4.458-30.839-6.399c-1.538-0.289-3.31,0.664-5.014,1.051
	c12.431,17.782,14.54,41.135,4.688,52.337c-25.084-10.743-28.368-30.766-22.352-54.97c-20.107-4.397-39.459-6.644-58.185,2.101
	c-9.832,4.591-16.467,12.862-20.97,22.799c-8.102,17.877-10.542,36.744-10.459,56.983c6.61-1.92,9.67-7.358,13.992-11.038
	c4.392-3.738,8.47-7.842,12.975-12.057c-1.437-3.145-2.815-6.091-4.136-9.063c-4.221-9.506-3.782-19.052-0.018-28.542
	c1.448-3.652,3.991-3.327,6.56-1.194c6.055,5.027,9.349,11.454,9.717,19.378c0.135,2.91,0.561,5.806,0.724,7.42
	c8.733-2.623,17.239-5.522,25.941-7.602c2.979-0.712,6.549,0.306,9.639,1.232c0.94,0.282,1.99,3.136,1.617,4.411
	c-3.984,13.603-13.069,22.75-27.878,24.411c-4.878,0.547-9.837,0.404-14.696,1.051c-1.915,0.254-4.329,1.349-5.343,2.852
	c-2.481,3.677-4.278,7.815-6.92,12.853c6.749,1.635,13.064,3.201,19.401,4.678c2.268,0.528,4.616,1.267,6.876,1.117
	c1.998-0.132,4.58-0.803,5.775-2.2c7.868-9.198,15.955-17.931,28.259-21.208c12.636-3.366,24.652-2.36,36.816,4.718
	c-10.575,18.327-27.25,23.839-46.485,24.663c-0.104,0.592-0.208,1.184-0.312,1.776c6.749,1.388,13.445,3.493,20.26,4.003
	c11.112,0.831,22.344,0.097,33.448,0.984c13.48,1.079,24.542,7.245,32.493,18.462c1.846,2.603,2.148,4.859-1.09,6.803
	c-15.272,9.169-29.244,10.052-45.25-1.412c-8.229-5.895-16.168-12.456-25.107-17.011c-6.017-3.066-13.553-3.148-20.409-4.565
	c-0.346,0.599-0.691,1.198-1.037,1.797c3.277,2.409,6.479,4.931,9.849,7.205c7.23,4.88,15.556,8.231,17.725,18.469
	c1.872,8.832,4.89,17.354,1.373,26.587c-8.68,1.215-15.035-3.348-20.292-8.802c-6.405-6.646-10.438-14.55-11.072-24.413
	c-0.849-13.202-7.189-20.549-22.189-21.37c-4.264-0.234-8.67,0.139-12.857,0.988c-5.721,1.162-8.513,6.024-12.257,10.093
	c-11.282,12.261-15.757,26.857-16.512,42.828c-1.8,38.071-3.451,76.153-4.708,114.246c-0.55,16.646-0.169,33.334,0.125,49.995
	c0.241,13.614,0.364,27.276,1.627,40.815c2.562,27.479,5.455,54.943,9.035,82.307c1.685,12.882,5.128,25.547,8.084,38.239
	c0.942,4.044,0.494,6.07-4.144,6.074c-14.474,0.012-29.566-0.355-44.036-0.077c-4.477,0.087-5.144-1.132-5.092-5.541
	c0.26-22.443,0.243-44.889,0.27-67.333c0.022-18.46,0.057-36.921-0.105-55.379c-0.045-5.175-0.764-10.343-1.197-15.817
	c-3.965-1.198-5.747,0.148-5.757,4.438c-0.057,24.836-0.26,49.671-0.273,74.507c-0.006,10.49,0.307,20.982,0.52,31.472
	c0.18,8.896,0.249,17.801,0.707,26.685c0.26,5.035-2.361,6.841-6.676,6.9c-14.474,0.201-28.95,0.306-43.425,0.276
	c-2.035-0.004-5.718,0.398-5.839-1.402c3.91-20.612,8.151-40.635,11.387-60.818c2.27-14.159,3.585-28.509,4.576-42.826
	c1.206-17.417,1.805-34.882,2.346-52.336c1.484-47.927,3.403-95.854,3.848-143.793c0.15-16.252-0.139-32.958-5.734-48.796
	c-2.809-7.951-4.553-16.158-10.209-23.067c-5.167-6.311-9.157-7.907-16.471-7.91c-2.992,0.332-6.981,0.309-9.308,0.667
	c-4.321,0.665-5.26,2.472-5.138,7.022c0.099,3.692,0.676,7.439,1.579,11.027c2.087,8.293-3.46,24.784-10.395,30.018
	c-3.778,2.851-6.643,1.298-7.723-2.549c-2.146-7.645-4.916-14.937-5.229-23.244c-0.43-2.986,1.625-6.332,2.548-9.515
	c-0.814-0.407-1.627-0.815-2.441-1.223c-2.253,3.601-2.873,6.794-5.114,10.402c-0.486,0.782-2.433,2.24-3.021,2.763
	c-6.619,5.88-11.273,8.54-21.688,12.117c-5.873,1.741-9.529,3.07-14.67,2.054c-4.5,0.685-7.34-1.146-11.039-1.575
	c-7.299-0.846-7.995-3.717-6.361-10.746c3.101-13.337,14.097-16.99,24.186-22.021c1.288-0.642,4.75-1.105,6.333-1.207
	c7.46-0.483,13.3-0.123,20.767-0.451c2.84-0.125,6.35,1.588,8.451,0.441c8.072-4.404,15.697-9.629,23.489-14.548
	c-0.122-0.989-0.245-1.979-0.367-2.968c-6.79-2.538-13.449-5.526-20.394-7.524c-16.636-4.787-33.172-3.104-48.83,3.582
	c-5.432,2.319-9.153,8.354-14.26,11.794c-7.718,5.197-16.511,7.398-25.879,5.992c-5.97-0.896-11.988-1.797-17.786-3.409
	c-4.149-1.153-5.341-3.791-1.354-7.203c9.669-8.273,19.837-14.983,33.269-15.602c10.098-0.466,20.141-2.16,30.879-3.384
	c-5.432-4.129-10.905-7.423-15.241-11.834c-4.25-4.323-7.967-9.459-10.757-14.841c-2.577-4.971-1.057-6.239,4.617-6.724
	c17.069-1.458,30.325,4.504,37.621,20.366c3.533,7.681,9.071,8.769,16.219,8.331c7.29-0.447,14.602-0.516,21.902-0.816
	c1.1-0.045,2.185-0.445,4.871-1.025c-4.492-2.497-7.722-4.322-10.979-6.097c-12.165-6.626-24.483-12.987-36.472-19.917
	c-15.407-8.905-19.276-23.294-17.757-39.876c0.463-5.05,2.992-7.971,8.497-7.064c12.479,2.056,23.849,6.337,31.226,17.359
	c8.397,12.546,16.439,25.331,23.857,36.806c0.118-5.708,0.038-13.179,0.489-20.619c0.462-7.638,1.627-15.166,8.515-20.478
	c9.909,11.486,10.039,24.366,8.248,38.28c-1.001,7.786-5.281,17.313,2.882,23.705c8.347,6.537,17.699,11.791,26.61,17.606
	c0.807-0.363,1.613-0.727,2.419-1.089c-0.16-6.854,0.439-13.831-0.648-20.535c-1.833-11.293-4.134-22.589-7.342-33.561
	c-3.959-13.539-13.741-23.118-24.472-31.676c-13.066-10.42-27.109-18.887-43.386-23.664c-9.659-2.834-19.008-2.605-28.332-0.028
	c-14.257,3.939-27.567,9.911-38.629,20.172c-4.2,3.895-6.076,8.559-6.073,14.119c0.007,11.479-1.078,22.637-6.665,33.083
	c-7.193,13.449-18.882,19.96-33.188,22.874c-1.143,0.232-2.293,0.426-3.431,0.683c-6.718,1.512-9.205-0.485-9.119-7.337
	c0.132-10.623-0.326-21.37,4.175-31.36c6.424-14.26,17.651-22.835,32.462-27.384c3.477-1.068,6.408-3.912,9.59-5.938
	c-0.37-0.8-0.739-1.599-1.109-2.398c-5.064,1.387-10.064,3.103-15.206,4.089c-9.56,1.835-19.176,4.329-28.814,4.544
	c-10.803,0.242-20.678-3.96-28.005-12.532c-6.533-7.642-5.462-13.133,3.027-18.558c15.725-10.048,32.857-11.106,50.464-7.592
	c9.885,1.973,19.479,5.367,29.308,7.679c3.438,0.809,7.319,0.948,10.766,0.252c6.625-1.34,13.301-2.958,19.556-5.459
	c6.421-2.567,6.779-6.035,0.723-8.78c-12.906-5.85-26.19-10.904-39.484-15.843c-4.703-1.748-9.985-1.881-14.811-3.375
	c-3.19-0.987-4.624-0.515-6.726,2.288c-10.673,14.237-29.2,20.176-44.206,15.365c-5.58-1.789-5.39-4.811-3.659-8.835
	c3.701-8.598,11.251-12.71,19.334-16.101c1.718-0.721,3.521-1.241,7.124-2.491c-20.964-5.365-38.489-12.884-46.58-33.036
	c0.041-1.992,0.082-3.985,0.123-5.977c7.514-1.831,15.021-5.154,22.544-5.189c16.636-0.079,29.362,7.974,37.829,22.477
	c5.218,8.939,11.663,16.062,22.243,19.336c11.313,3.501,22.131,8.575,33.239,12.769c13.972,5.275,28.018,10.354,42.413,15.658
	c0.385-1.707,0.915-2.611,0.661-3.141c-4.187-8.74-7.957-17.747-12.962-26.001c-2.371-3.908-6.923-4.534-12.373-3.267
	c-8.875,2.063-18.318,3.371-27.345,2.684c-11.75-0.895-21.535-6.741-27.522-17.653c-1.928-3.515-1.171-5.735,2.334-7.641
	c13.941-7.581,28.083-10.047,43.546-1.453c-0.661-1.578-0.854-2.264-1.209-2.852c-5.489-9.096-13.912-14.29-23.878-16.752
	c-9.264-2.289-18.789-3.495-28.126-5.513c-18.271-3.947-31.644-13.713-36.999-32.413c-0.423-1.475,0.104-4.61,0.807-4.81
	c10.013-2.858,20.089-5.271,30.67-2.825c10.954,2.533,18.477,10.322,26.679,17.012c6.379,5.203,12.337,10.921,18.482,16.411
	c-0.401-3.083-1.737-5.446-2.668-7.96c-4.152-11.202-5.638-22.413,0.61-33.423c1.388-2.445,2.765-4.88,6.433-2.762
	c8.533,4.93,13.984,12.037,17.176,21.383c3.68,10.775,3.008,21.741,2.882,32.766c-0.028,2.461,0.326,5.256,1.491,7.348
	c7.78,13.971,15.53,27.976,23.917,41.584c4.132,6.705,9.603,12.584,14.878,19.365c4.4-5.789,4.967-10.724,2.228-15.481
	c-8.461-14.696-8.191-30.343-5.198-46.185c0.75-3.967,3.386-7.577,5.441-11.961c2.619,2.054,4.501,3.136,5.875,4.671
	c12.745,14.228,14.624,31.122,11.714,49.09c-0.367,2.265-0.779,5.076-2.26,6.5c-4.218,4.056-4.288,8.25-3.593,13.85
	c2.809,22.637,28.001,42.855,50.908,38.313c0.038-1.815,0.225-3.768,0.081-5.694c-0.19-2.527-0.643-5.034-0.983-7.549
	c-4.062-30.042-12.718-58.682-27.002-85.44c-4.665-8.738-10.372-16.973-16.23-24.979c-1.323-1.808-5.261-2.291-8.013-2.338
	c-5.291-0.091-10.625,1.1-15.886,0.796c-9.743-0.562-18.7-3.628-25.963-10.563c-3.521-3.362-3.314-7.252,1.377-8.718
	c6.033-1.886,12.509-2.382,18.81-3.377c2.64-0.417,5.32-0.578,7.982-0.855c0.143-0.635,0.285-1.269,0.427-1.904
	c-9.499-7.195-18.76-14.736-28.573-21.474c-7.561-5.193-16.268-10.691-25.506-6.342c-12.654,5.956-25.276,10.875-39.291,12.495
	c-13.483,1.558-25.76-0.313-36.334-9.258c-3.695-3.125-4.621-7.045-0.609-10.566c6.377-5.598,13.31-10.115,22.212-10.896
	c5.677-0.498,11.283-1.801,17.555-2.849c-12.697-10.932-17.818-19.839-16.958-29.427c14.611,0.593,28.231,3.146,38.801,14.754
	c5.991,6.579,12.384,12.866,19.136,18.656c6.762,5.798,14.507,10.128,24.387,11.584c-1.85-3.332-3.022-6.062-4.73-8.402
	c-4.827-6.615-8.62-15.085-15.118-19.132c-10.602-6.6-20.414-13.515-27.43-23.799c-5.321-7.798-9.158-16.271-6.957-26.334
	c4.955,0.102,9.741-0.673,14.037,0.443c16.286,4.231,31.123,24.423,31.292,41.43c0.02,1.954,0.736,4.308,1.964,5.782
	c13.902,16.689,27.967,33.244,43.188,51.253c1.183-8.008,2.268-14.415,2.943-20.866c0.112-1.066-1.435-2.462-2.452-3.467
	c-8.795-8.695-18.204-16.849-26.29-26.155c-5.773-6.646-9.827-14.803-9.265-24.61c15.294-0.302,26.071,7.297,35.756,17.23
	c1.227,1.258,2.825,2.154,5.262,3.97c0.702-6.591,1.695-11.468,1.539-16.309c-0.08-2.476-1.617-5.673-3.557-7.153
	c-3.658-2.792-8.163-4.443-12.176-6.806c-17.575-10.349-27.527-24.762-24.778-46.145c0.519-4.038,1.913-5.134,5.744-4.181
	c12.458,3.101,22.219,10.342,28.524,21.114c5.672,9.692,9.603,20.403,14.559,31.225c0.635-3.669,1.671-7.384,1.85-11.14
	c0.427-8.993-0.45-18.135,0.838-26.979c2.136-14.651,7.792-27.845,20.836-36.51c4.982-3.31,8.343-2.619,11.489,2.31
	c6.276,9.833,6.11,20.541,3.547,31.284c-3.84,16.097-13.856,28.66-24.315,40.917c-9.654,11.315-12.084,18.589-9.775,29.761
	c10.661-17.503,24.078-29.427,45.982-26.197c-3.014,17.836-8.58,30.56-29.45,36.062c-10.794,2.846-19.323,9.697-21.22,20.661
	c-2.318,13.401-1.186,27.73,5.356,39.608c14.192,25.772,29.783,50.799,45.511,75.684c4.032,6.38,10.7,11.095,17.277,17.701
	c1.414-4.675,2.682-7.186,2.868-9.774c0.837-11.651,1.748-23.322,1.834-34.991c0.039-5.326-0.359-11.555-3.044-15.805
	c-4.902-7.756-11.527-14.459-17.756-21.307c-1.087-1.196-3.852-1.548-5.685-1.267c-8.807,1.351-17.573,2.243-25.102-3.702
	c-2.402-1.896-3.749-5.127-5.579-7.748c2.911-1.321,5.9-3.899,8.719-3.725c8.165,0.504,16.262,2.115,25.316,3.425
	c-15.456-21.249-18.721-42.867,1.512-63.764c1.204,0.938,3.313,1.801,4.134,3.348c5.381,10.136,9.893,20.469,6.192,32.447
	c-1.665,5.388-3.799,10.955-3.845,16.456c-0.115,13.932,10.345,21.55,19.831,31.351c2.298-9.339,5.191-17.12,5.979-25.108
	c1.789-18.094,1.984-36.35,3.954-54.417c0.948-8.683-2.603-13.798-8.921-18.061c-16.282-10.984-25.54-25.969-27.011-45.736
	c-0.578-7.756,3.412-11.245,10.528-8.093c8.408,3.724,15.792,8.821,19.082,18.056c3.403,9.553,6.735,19.132,10.046,28.55
	c4.002-12.286,6.836-24.171,1.527-38.08c-5.413-14.183-5.12-29.826,3.844-43.597c2.859-4.391,6.535-8.25,9.838-12.353
	c1.992,0.041,3.984,0.082,5.977,0.123c1.536,3.744,3.025,7.507,4.616,11.227c4.824,11.278,6.54,23.137,5.005,35.165
	c-1.168,9.143-3.958,18.002-11.752,24.192c-1.065,0.846-2.582,1.932-2.7,3.035c-0.975,9.047-1.666,18.124-2.444,27.191
	c6.353-4.208,10.896-8.97,15.806-13.318c3.062-2.71,4.301-5.584,4.343-9.738c0.328-31.831,30.087-45.28,56.921-40.5
	c-1.801,8.394-2.346,17.275-5.663,24.959c-5.5,12.735-14.122,23.884-29.503,24.348c-12.441,0.375-21.1,5.962-28.587,14.833
	c-0.256,0.303-0.646,0.511-0.845,0.84c-4.596,7.66-12.054,14.922-13.206,23.076c-3.249,22.988-3.878,46.343-5.6,69.55
	c-0.547,7.367-1.283,14.719-2.08,23.749c14.389-11.581,27.995-20.55,46.012-17.957c0.263,1.977,0.69,3.842,0.731,5.717
	c0.276,12.683-6.571,21.375-17.151,26.499c-8.797,4.259-18.554,6.533-29.277,10.157c0.74,14.739,0.962,30.547,2.574,46.212
	c0.759,7.371,3.806,14.617,6.551,21.632c1.843,4.708,5.831,5.075,8.727,1.334c13.751-17.767,27.875-35.272,40.881-53.571
	c5.282-7.432,8.967-16.36,11.7-25.131c2.232-7.164,2.229-15.093,2.608-22.712c0.083-1.659-2.08-4.432-3.787-5.023
	c-19.776-6.855-29.915-21.304-33.878-41.196c-0.83-4.168,0.514-5.71,3.881-4.856c6.298,1.597,12.879,3.142,18.433,6.306
	c5.153,2.937,9.121,7.957,13.847,12.275c0.051-2.491-0.017-4.688,0.16-6.865c0.89-10.97-1.098-20.514-12.133-25.956
	c-2.779-1.371-5.466-3.046-7.925-4.934c-10.121-7.772-15.671-17.866-15.75-33.053c7.05,3.626,13.168,6.021,18.408,9.675
	c5.365,3.742,9.872,8.717,15.799,14.102c-0.521-19.35,3.805-35.603,18.807-48.375c8.211,16.457,8.921,31.876,1.554,47.337
	c-5.333,11.188-10.885,22.192-9.163,35.203c0.909,6.876,1.546,13.789,2.43,21.815c1.058-1.656,1.684-2.346,1.986-3.155
	c3.942-10.533,11.388-16.905,22.41-19.209c3.619-0.756,6.366,0.536,6.392,4.051c0.034,4.852-0.639,9.81-1.744,14.551
	c-2.77,11.871-10.387,19.656-21.463,24.422c-1.892,0.814-4.66,2.649-4.739,4.133c-0.626,11.813-0.699,23.655-0.983,37.441
	c6.208-5.897,11.675-9.975,15.693-15.171c5.938-7.678,12.662-15.519,15.768-24.435c4.71-13.521,6.908-27.967,9.527-42.139
	c0.967-5.235,0.988-10.676-2.198-15.934c-4.321-7.131-8.223-14.659-11.166-22.446c-3.605-9.537-7.743-19.372-8.589-29.337
	c-1.433-16.862,8.586-30.416,16.898-44.112c1.582-2.608,3.709-2.92,6.347-0.454c13.09,12.23,19.372,27.426,19.245,45.091
	c-0.068,9.575-1.432,19.14-2.188,28.439c0.406-0.64,1.043-1.762,1.791-2.803c6.016-8.37,13.599-14.003,24.419-14.148
	c3.33-0.045,4.446,1.344,4.545,4.654c0.295,9.955-2.513,18.818-7.895,27.168c-5.836,9.055-15.853,12.582-23.623,19.028
	c-2.536,2.105-4.715,5.616-5.361,8.825c-1.449,7.189-1.832,14.593-2.655,21.959c0.909,0.069,1.565,0.297,2.078,0.115
	c0.714-0.253,1.362-0.761,1.965-1.25c11.35-9.212,23.874-17.398,28.104-32.761c0.507-1.838,1.773-3.482,2.766-5.17
	c5.574-9.474,11.912-18.696,23.391-20.875c8.619-1.637,17.656-1.193,26.512-1.331c1.094-0.017,2.901,1.925,3.224,3.242
	c2.937,11.97-2.076,21.857-9.248,30.663c-7.903,9.705-18.961,14.134-30.972,16.673c-5.616,1.188-12.391,1.55-16.387,4.941
	c-16.995,14.425-34.008,28.991-47.365,47.123c-1.49,2.024-2.595,4.332-4.427,7.438c6.825,0.61,12.107,1.578,17.362,1.445
	c9.628-0.241,19.249-1.006,28.852-1.805c4.434-0.369,6.505-2.512,6.619-7.671c0.389-17.57,7.146-32.045,22.574-42.125
	c6.441,6.55,4.582,13.971,2.928,21.2c-1.66,7.252-3.749,14.405-5.65,21.603c0.578,0.268,1.155,0.536,1.732,0.804
	c1.141-1.577,2.386-3.09,3.403-4.743c3.855-6.257,6.853-13.243,11.609-18.704c9.793-11.243,23.354-16.043,37.619-18.657
	c4.039-0.741,8.35,0.008,12.536,0.074C714.289,214.672,714.216,218.258,714.143,221.845z"/>
<path fill-rule="evenodd" clip-rule="evenodd" d="M234.875,847.044c1.973-8.315,4.322-16.563,5.827-24.962
	c2.001-11.174,3.616-22.433,4.907-33.711c2.193-19.145,4.129-38.322,5.927-57.509c1.039-11.096,1.368-22.259,2.415-33.354
	c2.419-25.635,2.971-51.573,12.955-75.974c3.823-9.346,9.211-17.331,17.081-23.547c1.498-1.185,4.416-2.768,8.073-2.436
	c0.494,1.81-1.229,68.821-1.477,100.214c-0.005,0.598-0.204,5.895-0.185,6.491c0,0,0.332-0.294,5.483-0.24
	c0.732-35.611,1.463-71.223,2.201-107.088c8.298-0.524,13.142,4.988,16.905,10.897c8.426,13.235,12.122,28.194,13.577,43.664
	c1.8,19.135,3.322,38.297,4.84,57.457c1.039,13.122,1.583,26.287,2.864,39.383c1.275,13.022,2.969,26.017,4.888,38.963
	c2.315,15.613,5.053,31.165,7.631,46.74c0.317,1.915,0.816,3.806,1.203,5.702c1.644,8.074,1.795,10.197,1.795,10.197
	S235.177,846.567,234.875,847.044z"/>
</svg>
