<?xml version="1.0" encoding="UTF-8" standalone="no"?>
<!--?xml version="1.0" standalone="no"?-->

<svg
   xmlns:dc="http://purl.org/dc/elements/1.1/"
   xmlns:cc="http://creativecommons.org/ns#"
   xmlns:rdf="http://www.w3.org/1999/02/22-rdf-syntax-ns#"
   xmlns:svg="http://www.w3.org/2000/svg"
   xmlns="http://www.w3.org/2000/svg"
   xmlns:sodipodi="http://sodipodi.sourceforge.net/DTD/sodipodi-0.dtd"
   xmlns:inkscape="http://www.inkscape.org/namespaces/inkscape"
   version="1.0"
   width="200.000000pt"
   height="200.000000pt"
   viewBox="0 0 300.000000 256.000000"
   preserveAspectRatio="xMidYMid meet"
   id="svg27"
   sodipodi:docname="human-body-size-icons.svg"
   inkscape:version="0.92.3 (2405546, 2018-03-11)">
  <metadata
     id="metadata33">
    <rdf:RDF>
      <cc:Work
         rdf:about="">
        <dc:format>image/svg+xml</dc:format>
        <dc:type
           rdf:resource="http://purl.org/dc/dcmitype/StillImage" />
        <dc:title></dc:title>
      </cc:Work>
    </rdf:RDF>
  </metadata>
  <defs
     id="defs31" />
  <sodipodi:namedview
     pagecolor="#ffffff"
     bordercolor="#666666"
     borderopacity="1"
     objecttolerance="10"
     gridtolerance="10"
     guidetolerance="10"
     inkscape:pageopacity="0"
     inkscape:pageshadow="2"
     inkscape:window-width="1920"
     inkscape:window-height="1001"
     id="namedview29"
     showgrid="false"
     inkscape:zoom="0.69140625"
     inkscape:cx="200"
     inkscape:cy="170.66667"
     inkscape:window-x="-9"
     inkscape:window-y="-9"
     inkscape:window-maximized="1"
     inkscape:current-layer="svg27" />
  <g
     transform="matrix(0.11045278,0,0,-0.13030564,-17.754199,304.21308)"
     id="g23"
     style="fill:#0f0f0f;stroke:none">
    <path
       class="node"
       id="node1"
       d="m 747,2310 c -51,-40 -23,-120 41,-120 38,0 62,28 62,72 0,39 -11,53 -50,63 -18,4 -34,0 -53,-15 z"
       inkscape:connector-curvature="0" />
    <path
       class="node"
       id="node2"
       d="m 2145,2318 c -30,-16 -45,-39 -45,-69 0,-41 9,-58 42,-75 57,-30 118,6 118,69 0,41 -15,63 -51,76 -38,13 -39,13 -64,-1 z"
       inkscape:connector-curvature="0" />
    <path
       class="node"
       id="node3"
       d="m 272,2174 c -16,-11 -22,-25 -22,-54 0,-29 6,-43 22,-54 48,-34 108,-4 108,54 0,58 -60,88 -108,54 z"
       inkscape:connector-curvature="0" />
    <path
       class="node"
       id="node4"
       d="m 1652,2168 c -32,-32 -3,-118 41,-118 42,0 65,100 28,120 -26,13 -54,13 -69,-2 z"
       inkscape:connector-curvature="0" />
    <path
       class="node"
       id="node5"
       d="m 2660,2138 c -36,-39 -17,-99 36,-112 14,-4 24,-10 21,-13 -4,-3 -20,0 -36,6 -39,17 -64,3 -89,-51 -26,-54 -50,-214 -34,-230 19,-19 29,1 35,74 7,78 23,138 38,138 5,0 6,-27 1,-62 -4,-35 -7,-81 -7,-103 2,-347 5,-366 50,-349 12,5 15,31 15,150 0,137 1,144 20,144 19,0 20,-7 20,-144 0,-119 3,-145 15,-150 40,-15 45,0 48,153 2,171 -1,307 -8,339 -3,12 -1,22 4,22 16,0 33,-59 40,-137 5,-60 9,-78 21,-78 19,0 19,91 0,179 -15,73 -56,122 -95,112 l -24,-6 24,24 c 14,14 25,37 25,51 0,58 -79,87 -120,43 z"
       inkscape:connector-curvature="0" />
    <path
       class="node"
       id="node6"
       d="m 697,2140 c -9,-6 -27,-30 -39,-53 -20,-37 -22,-58 -23,-177 0,-128 1,-135 20,-135 19,0 20,7 22,108 1,120 10,188 22,168 4,-6 6,-137 4,-289 -4,-280 1,-332 31,-332 8,0 22,7 30,16 13,13 16,45 16,195 0,113 4,179 10,179 6,0 10,-68 10,-184 0,-137 3,-187 13,-193 20,-13 41,-13 49,0 4,7 8,144 8,305 0,160 4,292 9,292 12,0 21,-78 21,-182 0,-80 2,-89 18,-86 15,3 17,18 20,122 2,88 -1,131 -13,165 -27,80 -35,86 -128,89 -46,1 -90,-2 -100,-8 z"
       inkscape:connector-curvature="0" />
    <path
       class="node"
       id="node7"
       d="m 2026,2119 c -40,-31 -59,-112 -54,-230 4,-106 15,-132 46,-113 15,10 17,26 14,115 -3,109 11,167 23,93 3,-21 10,-58 16,-81 5,-23 9,-133 9,-245 0,-210 3,-228 41,-228 44,0 49,22 49,205 0,97 4,176 9,180 6,3 11,-68 13,-179 3,-203 7,-217 55,-200 l 28,9 6,230 c 6,227 22,361 41,333 5,-7 8,-60 6,-117 -3,-89 -1,-105 14,-115 32,-20 43,8 46,118 4,120 -9,178 -48,218 -28,28 -29,28 -158,28 -116,0 -132,-2 -156,-21 z"
       inkscape:connector-curvature="0" />
    <path
       class="node"
       id="node8"
       d="m 205,1996 c -39,-42 -48,-82 -43,-196 2,-59 6,-75 18,-75 12,0 16,20 21,98 4,55 12,104 18,110 8,8 11,-55 11,-235 0,-212 2,-247 16,-259 11,-9 20,-10 32,-2 14,9 17,33 20,159 4,199 22,216 22,20 0,-153 7,-186 40,-186 35,0 40,31 40,277 0,157 4,233 10,223 5,-8 10,-54 10,-101 0,-63 4,-90 15,-99 8,-6 19,-9 25,-5 15,9 12,154 -5,212 -22,74 -42,87 -136,92 l -80,3 z"
       inkscape:connector-curvature="0" />
    <path
       class="node"
       id="node9"
       d="m 1212,2010 c -30,-28 -30,-83 0,-104 48,-34 108,-7 108,47 0,38 -7,50 -37,66 -31,16 -46,14 -71,-9 z"
       inkscape:connector-curvature="0" />
    <path
       class="node"
       id="node10"
       d="m 1606,2000 c -29,-35 -39,-87 -34,-183 4,-99 22,-82 28,27 3,56 10,100 18,108 9,9 12,-40 12,-249 0,-147 4,-264 9,-267 5,-4 16,-3 25,0 14,5 16,29 16,171 0,107 3,162 10,158 6,-4 10,-70 10,-165 0,-160 5,-185 35,-160 12,10 15,56 15,261 0,147 4,249 9,249 10,0 19,-63 24,-155 3,-72 21,-62 25,13 4,80 -13,163 -39,196 -18,23 -28,26 -79,26 -52,0 -61,-3 -84,-30 z"
       inkscape:connector-curvature="0" />
    <path
       class="node"
       id="node11"
       d="m 1136,1830 c -27,-33 -39,-89 -34,-160 2,-38 7,-46 26,-48 21,-3 22,0 22,72 0,41 5,78 10,81 7,4 10,-51 10,-158 0,-176 6,-196 50,-182 18,6 20,14 20,98 0,51 5,99 10,107 7,10 10,-15 10,-81 0,-80 3,-99 18,-112 23,-21 27,-21 46,-1 13,13 16,43 16,175 0,99 4,159 10,159 6,0 10,-34 10,-81 0,-78 1,-80 23,-77 19,3 22,10 25,58 4,76 -4,114 -34,150 -25,29 -27,30 -119,30 -91,0 -94,-1 -119,-30 z"
       inkscape:connector-curvature="0" />
    <path
       class="node"
       id="node12"
       d="m 991,1205 c -35,-40 -38,-62 -16,-105 30,-59 98,-68 146,-21 62,62 15,161 -76,161 -14,0 -35,-14 -54,-35 z"
       inkscape:connector-curvature="0" />
    <path
       class="node"
       id="node13"
       d="m 1799,1225 c -35,-19 -62,-77 -54,-115 15,-69 92,-106 158,-75 39,18 57,50 57,101 0,28 -8,44 -34,70 -38,38 -81,44 -127,19 z"
       inkscape:connector-curvature="0" />
    <path
       class="node"
       id="node14"
       d="m 365,1105 c -14,-13 -25,-33 -25,-43 0,-30 38,-72 66,-72 30,0 74,41 74,70 0,12 -11,32 -25,45 -13,14 -33,25 -45,25 -11,0 -32,-11 -45,-25 z"
       inkscape:connector-curvature="0" />
    <path
       class="node"
       id="node15"
       d="M 925,1060 C 852,1013 825,944 825,798 c 0,-119 8,-139 49,-120 24,10 24,10 45,-91 11,-56 23,-120 27,-142 10,-63 21,-77 57,-73 l 32,3 5,133 c 6,171 24,180 28,13 1,-71 7,-130 14,-138 13,-17 53,-17 65,-1 5,7 22,79 38,161 15,81 30,147 32,147 2,0 12,-5 22,-12 15,-9 23,-9 35,1 13,11 16,35 16,117 0,118 -21,192 -68,237 -42,40 -71,47 -107,26 -39,-24 -82,-24 -123,1 -39,24 -31,24 -67,0 z m 335,-216 c 0,-46 -17,-104 -31,-104 -12,0 -12,3 7,50 11,27 15,56 11,82 -4,27 -2,37 4,27 5,-7 9,-32 9,-55 z M 885,755 c 7,-19 7,-19 -10,-3 -20,18 -32,106 -19,135 5,13 10,-2 15,-47 3,-36 10,-74 14,-85 z"
       inkscape:connector-curvature="0" />
    <path
       class="node"
       id="node16"
       d="m 1695,1056 c -97,-42 -220,-277 -158,-300 20,-8 30,7 38,55 4,21 13,45 20,56 12,15 11,9 0,-31 -33,-108 -11,-211 56,-274 55,-51 155,-75 259,-61 183,26 255,162 194,367 -3,9 4,1 14,-18 11,-19 23,-50 27,-67 7,-35 12,-38 35,-23 12,7 12,16 1,62 -19,77 -59,144 -113,193 -59,53 -103,66 -124,37 -7,-11 -32,-27 -54,-36 -38,-15 -44,-15 -75,0 -18,8 -41,24 -51,35 -20,22 -28,23 -69,5 z"
       inkscape:connector-curvature="0" />
    <path
       class="node"
       id="node17"
       d="m 2563,968 c -34,-9 -63,-49 -63,-88 0,-39 29,-79 63,-88 65,-17 117,22 117,88 0,66 -52,105 -117,88 z"
       inkscape:connector-curvature="0" />
    <path
       class="node"
       id="node18"
       d="m 290,932 c -35,-35 -60,-114 -67,-208 -6,-73 1,-90 31,-78 12,5 15,20 12,82 -2,43 -1,57 1,32 2,-24 8,-49 12,-55 5,-5 17,-77 26,-160 10,-82 22,-156 28,-162 13,-18 54,-16 61,3 3,9 6,65 6,125 0,152 19,141 22,-13 l 3,-123 28,-3 c 16,-2 29,2 32,10 3,7 16,85 30,173 30,194 40,236 49,214 4,-8 2,-28 -4,-43 -15,-40 -12,-76 6,-83 26,-10 34,17 28,87 -8,95 -30,164 -63,199 -28,30 -31,31 -121,31 -87,0 -93,-1 -120,-28 z"
       inkscape:connector-curvature="0" />
    <path
       class="node"
       id="node19"
       d="m 2488,799 c -10,-5 -29,-29 -42,-52 -43,-76 -47,-227 -5,-227 23,0 24,9 2,55 -12,25 -14,38 -6,46 7,7 13,-1 17,-28 4,-21 15,-49 24,-63 8,-14 20,-54 26,-90 11,-63 12,-65 41,-65 29,0 30,2 33,48 4,54 22,65 22,13 0,-49 9,-66 35,-66 32,0 41,17 48,84 3,33 13,66 23,77 9,10 20,44 25,76 l 7,58 -2,-55 c -1,-30 -6,-63 -10,-72 -6,-14 -4,-18 12,-18 27,0 37,49 28,128 -8,69 -32,119 -68,146 -27,19 -28,19 -48,1 -25,-23 -94,-24 -118,-1 -21,19 -21,19 -44,5 z"
       inkscape:connector-curvature="0" />
    <path
       class="node"
       id="node20"
       d="m 1693,484 c 3,-10 11,-38 17,-60 11,-44 24,-54 69,-54 37,0 61,28 61,72 0,35 0,35 -52,41 -29,4 -64,9 -77,13 -20,6 -22,4 -18,-12 z"
       inkscape:connector-curvature="0" />
    <path
       class="node"
       id="node21"
       d="m 1965,490 c -11,-5 -37,-9 -57,-9 -37,-1 -38,-2 -38,-39 0,-47 24,-72 67,-72 39,0 60,24 68,83 8,50 2,55 -40,37 z"
       inkscape:connector-curvature="0" />
  </g>
  <g
     transform="translate(0.000000,256.000000) scale(0.100000,-0.100000)"
     fill="#A4A4A4"
     stroke="none"
     id="g25" />
</svg>
