<!--?xml version="1.0" standalone="no"?--><svg version="1.0" xmlns="http://www.w3.org/2000/svg" width="290.000000pt" height="300.000000pt" viewBox="0 0 290.000000 300.000000" preserveAspectRatio="xMidYMid meet">
<metadata>
  <rdf:rdf xmlns:rdf="http://www.w3.org/1999/02/22-rdf-syntax-ns#" xmlns:rdfs="http://www.w3.org/2000/01/rdf-schema#" xmlns:dc="http://purl.org/dc/elements/1.1/">
    <rdf:description dc:title="humans" dc:publisher="Hiox" dc:date="2015-03-26" dc:format="image/svg+xml" dc:language="en">
      <dc:creator>
        <rdf:bag>
          <rdf:li>svgimages.com</rdf:li>
        </rdf:bag>
      </dc:creator>
    </rdf:description>
  </rdf:rdf>
</metadata>
<g transform="translate(0.000000,300.000000) scale(0.100000,-0.100000)" fill="#0A0A0A" stroke="none">
<path d="M783 2854 c-38 -19 -67 -75 -58 -111 3 -14 17 -42 31 -62 28 -42 31
-82 7 -103 -10 -9 -46 -30 -81 -47 -66 -33 -92 -69 -92 -126 0 -45 -49 -167
-96 -239 -25 -39 -63 -99 -84 -133 -23 -36 -55 -72 -77 -86 -21 -14 -46 -34
-56 -45 -21 -23 -15 -44 9 -35 13 5 12 -2 -5 -36 -21 -40 -21 -68 0 -56 5 4 9
0 9 -8 0 -22 34 -27 57 -8 11 9 34 50 52 91 27 61 47 88 106 145 63 60 81 86
128 183 l56 112 13 -57 c19 -84 14 -276 -11 -418 -12 -66 -26 -183 -31 -260
-9 -143 -13 -163 -48 -250 -14 -37 -21 -87 -26 -194 -4 -79 -12 -156 -17 -170
-6 -14 -26 -42 -45 -62 -47 -48 -45 -83 5 -87 48 -5 101 52 119 128 21 85 63
213 79 238 8 13 18 61 23 107 5 46 15 96 23 112 9 16 18 45 22 66 4 20 11 39
15 42 4 2 22 61 41 130 19 69 38 125 42 125 4 0 8 -75 8 -167 -1 -93 -1 -190
0 -218 0 -27 -2 -148 -5 -267 l-5 -218 29 -15 c17 -9 30 -20 30 -25 0 -16 46
-23 69 -10 30 15 26 34 -14 74 -19 20 -35 43 -35 52 0 9 13 58 29 109 48 150
56 207 43 333 -9 91 -9 120 3 164 52 191 58 218 58 293 1 60 -5 95 -22 140
-36 94 -43 137 -34 202 l8 58 28 -69 c36 -90 80 -156 155 -236 34 -36 62 -71
62 -77 0 -7 14 -42 32 -78 33 -67 39 -70 92 -49 14 6 17 14 13 43 -3 20 -8 45
-12 56 -7 16 -6 18 6 8 7 -7 19 -13 27 -13 26 0 6 25 -52 65 -50 35 -65 52
-105 130 -26 50 -63 115 -82 145 -33 52 -72 164 -84 240 -3 19 -13 49 -23 65
-19 31 -27 36 -124 79 -32 14 -58 29 -58 34 0 5 11 14 25 20 18 9 25 19 25 41
0 16 5 33 11 36 7 5 5 15 -5 31 -9 13 -16 33 -16 44 0 83 -103 135 -187 94z" id="node1" class="node" stroke-width="20"></path>
<path d="M2174 2846 c-17 -8 -39 -24 -48 -37 -29 -42 -17 -166 20 -210 12 -13
11 -22 -9 -60 -22 -40 -27 -44 -80 -55 -64 -13 -93 -39 -102 -94 -3 -19 -15
-57 -26 -85 -12 -27 -30 -75 -41 -105 -11 -30 -28 -64 -38 -75 -11 -11 -40
-67 -65 -125 -45 -101 -119 -224 -150 -250 -21 -18 -19 -32 5 -25 18 6 20 2
20 -53 0 -64 6 -78 27 -61 10 9 13 8 13 -1 0 -10 3 -10 15 0 8 7 15 9 15 4 0
-4 11 3 26 17 24 22 25 29 23 111 -2 86 -1 88 31 125 41 47 110 152 110 168 0
7 18 48 40 91 22 43 47 103 56 132 8 28 16 52 17 52 1 0 2 -51 2 -113 0 -118
-5 -151 -37 -259 -18 -62 -19 -77 -8 -225 7 -96 19 -179 30 -213 19 -60 32
-178 35 -335 1 -87 7 -115 39 -208 20 -59 34 -112 31 -118 -4 -5 -23 -17 -43
-27 -62 -29 -51 -40 43 -41 100 -1 106 4 82 80 -12 37 -15 72 -10 147 3 58 1
119 -5 148 -6 27 -14 111 -17 188 -3 76 -7 141 -10 145 -2 4 4 74 14 157 l17
149 12 -58 c6 -32 27 -98 47 -147 19 -48 37 -100 40 -116 20 -131 30 -174 48
-209 14 -28 20 -62 21 -111 1 -39 7 -78 13 -85 18 -23 61 -142 61 -173 0 -15
8 -40 19 -54 20 -27 21 -27 129 -23 60 1 111 5 113 7 11 10 -25 34 -51 34 -43
0 -127 46 -132 73 -3 12 -7 70 -11 128 -3 67 -13 127 -26 163 -14 40 -21 94
-25 174 -6 141 -28 303 -50 368 -10 31 -14 61 -9 90 3 24 1 62 -6 86 -14 50
-12 178 3 217 5 14 11 58 13 96 1 39 7 71 11 73 8 3 36 -64 86 -211 16 -47 35
-73 100 -137 61 -62 78 -85 73 -100 -7 -23 12 -100 25 -100 6 0 10 15 11 33 0
30 1 30 10 9 5 -13 6 -35 3 -48 -8 -31 11 -32 37 -1 31 37 24 78 -26 152 -24
36 -47 76 -51 88 -12 40 -46 102 -69 127 -13 14 -29 45 -35 70 -7 25 -29 79
-50 120 -21 41 -43 92 -49 112 -15 47 -26 55 -97 74 -69 18 -80 26 -100 72
-17 42 -10 96 17 131 62 79 -32 180 -127 137z" id="node2" class="node" stroke-width="20"></path>








































</g>
<g transform="translate(0.000000,300.000000) scale(0.100000,-0.100000)" fill="#FFFFFF" stroke="none">














</g>
</svg>