<?xml version="1.0" encoding="UTF-8" standalone="no"?>
<svg
   xmlns:dc="http://purl.org/dc/elements/1.1/"
   xmlns:cc="http://creativecommons.org/ns#"
   xmlns:rdf="http://www.w3.org/1999/02/22-rdf-syntax-ns#"
   xmlns:svg="http://www.w3.org/2000/svg"
   xmlns="http://www.w3.org/2000/svg"
   xmlns:sodipodi="http://sodipodi.sourceforge.net/DTD/sodipodi-0.dtd"
   xmlns:inkscape="http://www.inkscape.org/namespaces/inkscape"
   version="1.0"
   width="200.000000pt"
   height="200.000000pt"
   viewBox="0 0 1280.000000 1201.000000"
   preserveAspectRatio="xMidYMid meet"
   id="svg6"
   sodipodi:docname="yoga.svg"
   inkscape:version="0.92.3 (2405546, 2018-03-11)">
  <metadata
     id="metadata12">
    <rdf:RDF>
      <cc:Work
         rdf:about="">
        <dc:format>image/svg+xml</dc:format>
        <dc:type
           rdf:resource="http://purl.org/dc/dcmitype/StillImage" />
        <dc:title></dc:title>
      </cc:Work>
    </rdf:RDF>
  </metadata>
  <defs
     id="defs10" />
  <sodipodi:namedview
     pagecolor="#ffffff"
     bordercolor="#666666"
     borderopacity="1"
     objecttolerance="10"
     gridtolerance="10"
     guidetolerance="10"
     inkscape:pageopacity="0"
     inkscape:pageshadow="2"
     inkscape:window-width="1920"
     inkscape:window-height="1001"
     id="namedview8"
     showgrid="false"
     inkscape:zoom="0.14737719"
     inkscape:cx="853.33336"
     inkscape:cy="800.66669"
     inkscape:window-x="-9"
     inkscape:window-y="-9"
     inkscape:window-maximized="1"
     inkscape:current-layer="svg6" />
  <g
     transform="matrix(0.0999808,0,0,-0.09979801,0,1201.0359)"
     id="g4"
     style="fill:#000000;stroke:none">
    <path
       d="m 5755,11986 c -98,-32 -126,-48 -199,-117 -89,-83 -119,-136 -110,-194 5,-37 2,-52 -19,-87 -13,-24 -42,-88 -62,-143 -32,-84 -38,-114 -41,-189 -2,-85 -4,-94 -54,-192 -66,-132 -71,-164 -35,-192 15,-12 33,-22 40,-22 25,0 38,-31 36,-88 -1,-60 17,-131 56,-222 66,-152 80,-164 196,-168 53,-3 104,2 143,12 81,21 107,20 129,-4 21,-23 14,-64 -17,-97 -24,-26 -84,-31 -121,-12 -16,9 -22,9 -25,0 -2,-6 -26,-11 -57,-11 h -53 l 2,-32 c 1,-27 -5,-35 -39,-55 -46,-26 -85,-24 -150,9 -52,26 -224,48 -385,48 -102,0 -160,-6 -319,-36 l -194,-37 -83,27 c -45,15 -118,31 -161,36 -210,24 -273,29 -468,40 -115,6 -264,17 -330,25 -66,8 -165,17 -220,20 -93,6 -228,35 -435,93 -162,46 -263,61 -445,67 -99,3 -220,10 -270,15 -265,28 -468,53 -535,66 -188,38 -199,38 -608,25 -218,-7 -423,-17 -455,-22 -32,-6 -133,-16 -225,-24 -117,-9 -179,-18 -205,-31 -20,-10 -37,-21 -37,-24 0,-3 19,-17 43,-30 23,-12 54,-36 69,-51 20,-22 36,-29 63,-29 25,0 47,-8 68,-26 31,-26 32,-26 142,-19 196,13 308,12 313,-4 6,-18 -119,-134 -183,-170 -58,-33 -108,-98 -103,-133 7,-49 112,-24 195,46 20,17 60,32 121,46 143,31 271,76 346,120 108,63 117,64 412,25 117,-15 319,-72 457,-129 249,-102 886,-251 1177,-276 172,-14 244,-27 300,-51 80,-36 376,-107 805,-193 589,-118 753,-162 898,-239 168,-89 209,-258 117,-473 -31,-72 -44,-117 -48,-165 -7,-99 14,-249 47,-338 73,-191 74,-201 67,-371 -4,-85 -15,-231 -26,-325 -10,-93 -21,-201 -25,-239 -9,-93 -87,-481 -129,-641 -82,-314 -95,-349 -194,-504 -152,-236 -496,-669 -793,-995 -30,-33 -86,-100 -123,-148 -37,-48 -103,-127 -147,-175 -45,-48 -102,-117 -127,-153 -25,-36 -77,-104 -115,-152 -65,-84 -202,-300 -252,-398 -64,-126 -121,-337 -135,-494 -5,-55 -14,-130 -19,-166 -46,-295 -58,-1491 -25,-2317 l 7,-163 h 114 c 94,0 115,-3 120,-16 8,-20 -36,-65 -117,-119 -113,-74 -161,-92 -416,-155 -262,-64 -314,-85 -314,-126 0,-36 58,-144 78,-144 9,0 31,-8 47,-17 23,-12 62,-17 170,-19 77,-1 158,-6 180,-11 64,-15 221,19 309,67 64,34 194,77 285,94 19,3 71,1 115,-5 198,-28 326,41 345,187 11,80 21,86 111,74 41,-5 93,-10 115,-10 h 41 l 13,88 c 8,48 17,125 22,172 4,47 15,159 24,250 8,91 23,239 31,330 9,91 19,203 24,250 11,125 94,587 129,722 57,221 127,375 349,775 83,150 202,352 265,450 62,98 134,212 159,253 26,41 75,112 110,157 35,45 86,115 114,155 144,204 342,384 542,494 l 54,29 39,-45 c 52,-60 232,-330 307,-460 33,-58 80,-152 105,-210 73,-173 295,-616 375,-752 77,-130 269,-406 341,-489 22,-26 118,-117 213,-202 398,-356 597,-600 858,-1053 51,-87 97,-165 103,-172 5,-7 38,-66 71,-130 139,-264 277,-486 399,-637 70,-88 73,-90 132,-103 45,-10 72,-11 110,-3 28,6 74,13 102,17 l 53,7 15,-36 c 10,-24 15,-69 15,-131 0,-105 9,-138 48,-180 39,-41 86,-69 182,-105 158,-61 170,-70 354,-239 94,-87 118,-104 172,-122 84,-27 147,-26 187,2 17,12 48,23 70,24 22,1 48,10 60,22 12,11 33,23 46,27 13,4 46,29 72,55 46,46 48,51 51,111 l 3,64 -75,30 c -105,43 -127,56 -198,119 -63,56 -108,83 -212,127 -152,63 -402,289 -372,336 11,17 44,30 92,37 72,10 76,16 63,78 -6,29 -38,116 -71,193 -33,77 -108,257 -167,400 -108,263 -145,343 -409,875 -147,297 -332,647 -384,723 -16,23 -50,83 -77,132 -27,50 -69,122 -95,160 -79,120 -117,187 -153,275 -20,47 -56,126 -80,175 -62,125 -132,304 -301,775 -81,223 -167,459 -192,525 -26,66 -62,163 -81,215 -72,200 -341,725 -413,806 -16,19 -30,39 -30,44 0,6 -29,85 -64,177 -35,93 -78,215 -95,273 -53,184 -163,678 -182,815 -6,44 -17,105 -25,135 -25,98 -19,139 36,249 58,116 122,301 145,421 12,59 43,144 102,280 142,324 150,335 277,404 166,91 336,89 931,-9 149,-25 317,-56 375,-70 137,-33 370,-110 440,-145 188,-94 434,-162 706,-194 129,-15 383,-59 640,-111 101,-20 491,-126 789,-213 59,-18 121,-56 185,-114 48,-44 95,-74 178,-114 87,-41 131,-69 190,-123 85,-77 135,-97 165,-66 10,9 17,21 17,27 0,5 -29,48 -63,94 -82,109 -107,160 -107,217 0,107 89,50 239,-154 79,-107 112,-133 159,-126 20,4 48,15 62,26 16,11 41,19 63,18 26,-1 44,6 62,23 14,13 25,26 25,30 0,3 -40,41 -90,83 -49,42 -144,138 -211,213 -67,74 -141,146 -164,160 -54,31 -112,41 -312,53 l -163,10 -292,96 c -161,53 -369,124 -463,157 -93,33 -260,92 -370,130 -206,71 -553,217 -695,293 -55,29 -300,93 -400,105 -150,17 -322,54 -474,101 -72,23 -153,48 -181,56 -157,47 -374,160 -631,330 -177,117 -343,196 -494,235 -100,26 -138,31 -298,35 -100,3 -185,9 -187,13 -3,4 3,18 14,31 22,29 71,113 71,122 0,4 -28,7 -63,7 -48,0 -76,6 -114,25 -85,43 -128,117 -178,311 -14,55 -34,133 -45,174 -11,41 -29,135 -40,210 -11,74 -33,178 -49,230 -16,52 -39,131 -51,175 -31,116 -90,230 -153,300 -99,109 -115,116 -332,145 -142,19 -276,47 -334,70 -43,17 -60,19 -83,11 -23,-8 -40,-6 -81,9 -64,25 -93,24 -182,-4 z"
       id="path2"
       inkscape:connector-curvature="0" />
  </g>
</svg>
